<svg width="71" height="70" viewBox="0 0 71 70" fill="none" xmlns="http://www.w3.org/2000/svg">
<rect width="71" height="70" rx="10" fill="#F9C304"/>
<path d="M46.0625 19.25C49.2036 19.25 51.75 21.7964 51.75 24.9375V45.0625C51.75 48.2036 49.2036 50.75 46.0625 50.75H25.9375C22.7964 50.75 20.25 48.2036 20.25 45.0625V24.9375C20.25 21.7964 22.7964 19.25 25.9375 19.25H46.0625ZM46.0625 21.875H25.9375C24.2461 21.875 22.875 23.2461 22.875 24.9375V36.75H30.75C31.4145 36.75 31.9636 37.2439 32.0505 37.8844L32.0625 38.0625C32.0625 40.237 33.8255 42 36 42C38.0841 42 39.7898 40.3809 39.9284 38.332L39.9375 38.0625C39.9375 37.3376 40.5251 36.75 41.25 36.75H49.125V24.9375C49.125 23.3307 47.8876 22.0129 46.3136 21.8851L46.0625 21.875ZM26.8125 30.625H45.1875C45.9124 30.625 46.5 31.2126 46.5 31.9375C46.5 32.602 46.0062 33.1511 45.3657 33.2381L45.1875 33.25H26.8125C26.0876 33.25 25.5 32.6624 25.5 31.9375C25.5 31.273 25.9938 30.7239 26.6344 30.637L26.8125 30.625H45.1875H26.8125ZM26.8125 25.375H45.1875C45.9124 25.375 46.5 25.9626 46.5 26.6875C46.5 27.352 46.0062 27.9011 45.3657 27.988L45.1875 28H26.8125C26.0876 28 25.5 27.4124 25.5 26.6875C25.5 26.023 25.9938 25.4739 26.6344 25.387L26.8125 25.375H45.1875H26.8125Z" fill="#0F0F0F"/>
</svg>
