<svg width="68" height="68" viewBox="0 0 68 68" fill="none" xmlns="http://www.w3.org/2000/svg">
<rect width="68" height="68" rx="5.66667" fill="#02BD6E"/>
<g clip-path="url(#clip0_533_617)">
<path d="M46.2034 35.5941C46.2034 38.8347 44.916 41.9426 42.6246 44.234C40.3331 46.5255 37.2252 47.8128 33.9846 47.8128C30.744 47.8128 27.6361 46.5255 25.3447 44.234C23.0532 41.9426 21.7659 38.8347 21.7659 35.5941C21.7659 32.5261 23.0807 28.9933 25.6706 25.0886C25.8243 24.857 26.0627 24.6949 26.3346 24.637C26.6151 24.5817 26.9061 24.639 27.1448 24.7964L31.4213 27.6519L35.5252 19.0456C35.5974 18.8936 35.705 18.7611 35.8391 18.6594C35.9731 18.5577 36.1297 18.4897 36.2956 18.4612C36.4646 18.4311 36.6385 18.4419 36.8025 18.4928C36.9666 18.5436 37.1161 18.633 37.2385 18.7534C39.1909 20.7058 41.4221 23.0831 43.162 25.8456C45.2073 29.0995 46.2034 32.287 46.2034 35.5941Z" fill="white"/>
</g>
<defs>
<clipPath id="clip0_533_617">
<rect width="34" height="34" fill="white" transform="translate(17 17)"/>
</clipPath>
</defs>
</svg>
