<svg width="80" height="80" viewBox="0 0 80 80" fill="none" xmlns="http://www.w3.org/2000/svg">
<rect width="80" height="80" rx="13.1148" fill="#EB5757"/>
<path d="M56.2821 28.6344H43.3225L34.1997 36.2377L33.8579 36.4982C33.1541 36.9872 32.3344 37.284 31.4806 37.3588L31.0513 37.3776L17.4843 37.3754V53.2246L17.4956 53.5612C17.6686 56.1203 19.7993 58.1426 22.4023 58.1426H37.1564V49.3994C37.1564 45.7778 40.0921 42.8421 43.7138 42.8421H59.0143C59.7806 42.8421 60.5164 42.9736 61.2001 43.2152V33.5524L61.1887 33.2157L61.1531 32.8702C60.8211 30.477 58.7667 28.6344 56.2821 28.6344ZM33.8579 24.0494C33.0368 23.4788 32.058 23.1699 31.0513 23.1699H22.4023L22.0656 23.1813C19.5065 23.3543 17.4843 25.485 17.4843 28.088V34.0967L31.0513 34.0989L31.2794 34.0829C31.5051 34.0512 31.7217 33.9728 31.9153 33.8527L32.1008 33.7189L38.7957 28.1382L34.1997 24.3098L33.8579 24.0494ZM51.3855 55.797L39.3835 48.7957C39.6775 46.6672 41.5041 45.0278 43.7138 45.0278H59.0143C61.4073 45.0278 63.3511 46.9505 63.3855 49.3354L51.3855 55.797ZM51.8821 58.0119L63.3859 51.8176V60.3284C63.3859 62.7428 61.4287 64.7 59.0143 64.7H43.7138C41.2993 64.7 39.3422 62.7428 39.3422 60.3284V51.3022L50.8134 57.9937C51.1422 58.1854 51.547 58.1924 51.8821 58.0119Z" fill="white"/>
</svg>
