<svg width="60" height="60" viewBox="0 0 60 60" fill="none" xmlns="http://www.w3.org/2000/svg">
<rect width="60" height="60" rx="7.5" fill="#1179FC"/>
<path d="M35.4364 18.1357L23.5845 22.0732C15.6177 24.7376 15.6177 29.082 23.5845 31.7332L27.102 32.9014L28.2702 36.4189C30.9214 44.3857 35.2789 44.3857 37.9302 36.4189L41.8808 24.5801C43.6395 19.2645 40.752 16.3639 35.4364 18.1357ZM35.8564 25.197L30.8689 30.2107C30.672 30.4076 30.4227 30.4995 30.1733 30.4995C29.9239 30.4995 29.6745 30.4076 29.4777 30.2107C29.097 29.8301 29.097 29.2001 29.4777 28.8195L34.4652 23.8057C34.8458 23.4251 35.4758 23.4251 35.8564 23.8057C36.237 24.1864 36.237 24.8164 35.8564 25.197Z" fill="white"/>
</svg>
