<svg width="32" height="32" viewBox="0 0 32 32" fill="none" xmlns="http://www.w3.org/2000/svg">
<path d="M16.0013 2.66699C8.66797 2.66699 2.66797 8.66695 2.66797 16.0002C2.66797 23.3335 8.66797 29.3335 16.0013 29.3335C23.3346 29.3335 29.3346 23.3335 29.3346 16.0002C29.3346 8.66695 23.3346 2.66699 16.0013 2.66699ZM21.6013 13.7336L15.2013 20.1335C14.668 20.6669 13.868 20.6669 13.3346 20.1335L10.4013 17.2002C9.86797 16.6669 9.86797 15.8669 10.4013 15.3336C10.9346 14.8002 11.7346 14.8002 12.268 15.3336L14.268 17.3336L19.7346 11.8669C20.268 11.3336 21.068 11.3336 21.6013 11.8669C22.1346 12.4003 22.1346 13.2003 21.6013 13.7336Z" fill="#1179FC"/>
</svg>
