<svg width="60" height="60" viewBox="0 0 60 60" fill="none" xmlns="http://www.w3.org/2000/svg">
<rect width="60" height="60" rx="5" fill="#F9C304"/>
<path d="M30.0191 15.375C31.1199 15.3877 32.2165 15.5149 33.2913 15.7546C33.7603 15.8592 34.1112 16.2503 34.1645 16.7279L34.4197 19.0182C34.5352 20.0698 35.4233 20.8663 36.4817 20.8674C36.7662 20.8678 37.0476 20.8086 37.3105 20.6922L39.4114 19.7693C39.8484 19.5774 40.359 19.682 40.6851 20.0304C42.2034 21.652 43.3341 23.5967 43.9923 25.7184C44.1342 26.1759 43.9709 26.673 43.5852 26.9573L41.7231 28.3299C41.1918 28.7202 40.8781 29.34 40.8781 29.9993C40.8781 30.6584 41.1918 31.2781 41.7241 31.6693L43.5881 33.0425C43.9737 33.3266 44.1372 33.8238 43.9953 34.2814C43.3374 36.4027 42.2073 38.3473 40.6899 39.9691C40.364 40.3174 39.8539 40.4225 39.417 40.2309L37.3074 39.3068C36.7039 39.0426 36.0108 39.0813 35.4405 39.411C34.8702 39.7406 34.4907 40.3218 34.4181 40.9765L34.1646 43.2666C34.1122 43.7388 33.7689 44.1273 33.3068 44.2373C31.1342 44.7542 28.8705 44.7542 26.6978 44.2373C26.2356 44.1273 25.8923 43.7388 25.84 43.2666L25.5868 40.98C25.5124 40.3264 25.1322 39.747 24.5624 39.4185C23.9925 39.09 23.3005 39.0515 22.699 39.3141L20.5891 40.2384C20.1521 40.4299 19.6418 40.3249 19.3159 39.9763C17.7977 38.3527 16.6675 36.4058 16.0105 34.2822C15.869 33.8249 16.0325 33.3279 16.418 33.0439L18.283 31.67C18.8142 31.2797 19.1279 30.6598 19.1279 30.0007C19.1279 29.3415 18.8142 28.7217 18.2823 28.3309L16.4185 26.9593C16.0324 26.6752 15.8688 26.1777 16.0108 25.7199C16.6689 23.5982 17.7996 21.6535 19.3179 20.0319C19.6441 19.6835 20.1546 19.5789 20.5916 19.7708L22.6922 20.6936C23.2966 20.9588 23.9914 20.9188 24.5644 20.584C25.1349 20.2531 25.5147 19.6713 25.588 19.0165L25.8431 16.7279C25.8964 16.25 26.2475 15.8588 26.7169 15.7544C27.7929 15.5151 28.8906 15.388 30.0191 15.375ZM30.0003 25.4999C27.515 25.4999 25.5003 27.5146 25.5003 30C25.5003 32.4852 27.515 34.5 30.0003 34.5C32.4855 34.5 34.5003 32.4852 34.5003 30C34.5003 27.5146 32.4855 25.4999 30.0003 25.4999Z" fill="#212121"/>
</svg>
