<svg width="358" height="282" viewBox="0 0 358 282" fill="none" xmlns="http://www.w3.org/2000/svg">
<g filter="url(#filter0_d_2010_148)">
<rect width="187.009" height="76.189" rx="11.8467" transform="matrix(0.956305 -0.292372 0.325568 0.945519 62 117.676)" fill="white"/>
<circle cx="20.7788" cy="20.7788" r="20.7788" transform="matrix(0.956305 -0.292372 0.325568 0.945519 87.8438 128.234)" fill="#FFD1D1"/>
<path d="M110.772 131.159C104.99 132.927 101.895 139.001 103.863 144.719C105.832 150.436 112.123 153.641 117.905 151.874C123.688 150.106 126.783 144.031 124.814 138.313C122.846 132.596 116.555 129.391 110.772 131.159ZM109.366 138.068C110.214 137.809 111.151 138.278 111.444 139.127C111.733 139.966 111.28 140.871 110.421 141.134C109.573 141.393 108.635 140.924 108.343 140.075C108.051 139.226 108.507 138.331 109.366 138.068ZM112.394 146.461C112.291 146.664 112.117 146.797 111.917 146.858C111.718 146.919 111.494 146.908 111.284 146.8C110.877 146.593 110.705 146.096 110.906 145.702L115.431 136.82C115.632 136.427 116.135 136.273 116.542 136.481C116.949 136.688 117.12 137.186 116.92 137.579L112.394 146.461ZM119.312 144.964C118.464 145.223 117.526 144.754 117.234 143.905C116.945 143.066 117.398 142.161 118.257 141.898C119.105 141.639 120.042 142.108 120.335 142.957C120.627 143.806 120.171 144.701 119.312 144.964Z" fill="#EB5757"/>
<path d="M142.606 121.502L139.654 112.929L142.744 111.984C143.416 111.779 144.013 111.723 144.535 111.816C145.06 111.909 145.502 112.124 145.861 112.461C146.22 112.795 146.49 113.226 146.671 113.754C146.852 114.279 146.9 114.775 146.814 115.242C146.73 115.705 146.503 116.116 146.133 116.472C145.766 116.828 145.247 117.109 144.575 117.314L142.234 118.03L141.85 116.917L144.073 116.237C144.496 116.108 144.82 115.942 145.044 115.741C145.271 115.539 145.407 115.305 145.452 115.038C145.498 114.771 145.465 114.477 145.355 114.156C145.243 113.833 145.083 113.572 144.874 113.373C144.669 113.174 144.41 113.053 144.099 113.009C143.789 112.962 143.418 113.004 142.987 113.136L141.344 113.638L143.914 121.102L142.606 121.502ZM145.554 116.326L149.028 119.539L147.538 119.994L144.106 116.768L145.554 116.326ZM150.29 119.153L147.338 110.58L152.774 108.918L153.158 110.031L149.03 111.293L149.929 113.905L153.773 112.73L154.155 113.839L150.311 115.015L151.215 117.639L155.394 116.362L155.777 117.475L150.29 119.153ZM157.474 116.957L154.522 108.383L157.613 107.439C158.287 107.232 158.888 107.183 159.415 107.29C159.941 107.397 160.387 107.628 160.753 107.982C161.117 108.334 161.389 108.771 161.57 109.296C161.752 109.824 161.803 110.332 161.726 110.822C161.65 111.308 161.431 111.742 161.069 112.123C160.71 112.502 160.194 112.794 159.522 112.999L157.397 113.649L157.019 112.552L159.026 111.938C159.452 111.808 159.773 111.63 159.989 111.404C160.203 111.175 160.329 110.914 160.365 110.622C160.402 110.33 160.365 110.022 160.253 109.699C160.142 109.375 159.981 109.107 159.77 108.893C159.559 108.68 159.295 108.543 158.978 108.483C158.664 108.422 158.289 108.458 157.855 108.591L156.212 109.093L158.782 116.557L157.474 116.957ZM165.1 114.625L162.148 106.052L163.456 105.652L166.025 113.112L169.954 111.91L170.337 113.024L165.1 114.625ZM167.568 104.395L169.054 103.94L172.662 107.145L172.755 107.117L173.678 102.527L175.164 102.072L173.811 108.242L174.97 111.607L173.666 112.006L172.507 108.64L167.568 104.395ZM182.506 109.303L179.554 100.73L182.645 99.7853C183.317 99.5799 183.914 99.5239 184.436 99.6172C184.96 99.7097 185.403 99.9246 185.762 100.262C186.121 100.597 186.391 101.028 186.572 101.555C186.753 102.08 186.801 102.576 186.715 103.043C186.631 103.506 186.404 103.917 186.034 104.273C185.667 104.629 185.148 104.91 184.476 105.115L182.135 105.831L181.751 104.718L183.974 104.038C184.397 103.909 184.721 103.743 184.945 103.542C185.172 103.34 185.308 103.106 185.353 102.839C185.399 102.572 185.366 102.278 185.256 101.958C185.144 101.634 184.984 101.373 184.775 101.174C184.569 100.975 184.311 100.854 183.999 100.81C183.69 100.763 183.319 100.805 182.887 100.937L181.245 101.44L183.815 108.903L182.506 109.303ZM185.455 104.127L188.929 107.34L187.439 107.795L184.007 104.569L185.455 104.127ZM190.923 106.73L189.535 107.155L189.703 97.6275L191.214 97.1654L197.287 104.785L195.898 105.209L191.031 98.9426L190.963 98.9633L190.923 106.73ZM190 103.302L194.505 101.924L194.88 103.013L190.375 104.39L190 103.302ZM194.518 97.386L194.135 96.2725L200.845 94.2209L201.229 95.3344L198.523 96.1615L201.092 103.621L199.788 104.02L197.219 96.5602L194.518 97.386ZM205.28 102.341L202.328 93.7675L207.765 92.1055L208.148 93.219L204.02 94.481L204.919 97.0932L208.764 95.9178L209.146 97.0271L205.301 98.2025L206.205 100.827L210.384 99.5496L210.767 100.663L205.28 102.341Z" fill="#050917" fill-opacity="0.6"/>
<path d="M152.453 131.297L157.373 145.586L154.755 146.386L150.702 134.616L150.618 134.642L147.973 137.811L147.156 135.438L149.962 132.059L152.453 131.297ZM161.042 144.464L160.398 142.594L163.741 136.198C164.056 135.572 164.309 135.024 164.501 134.554C164.693 134.084 164.809 133.65 164.848 133.253C164.888 132.855 164.84 132.458 164.704 132.063C164.549 131.612 164.312 131.257 163.995 131C163.676 130.737 163.305 130.573 162.881 130.507C162.458 130.441 162.016 130.479 161.555 130.62C161.08 130.765 160.697 130.99 160.407 131.295C160.115 131.595 159.931 131.951 159.856 132.365C159.784 132.778 159.833 133.228 160.001 133.717L157.51 134.478C157.198 133.571 157.136 132.719 157.324 131.921C157.512 131.123 157.91 130.428 158.517 129.837C159.129 129.243 159.912 128.801 160.867 128.509C161.837 128.213 162.75 128.131 163.607 128.265C164.464 128.399 165.202 128.716 165.821 129.215C166.445 129.713 166.895 130.362 167.17 131.162C167.355 131.697 167.432 132.254 167.403 132.834C167.374 133.414 167.206 134.097 166.9 134.885C166.599 135.671 166.134 136.654 165.505 137.833L163.877 141.099L163.91 141.197L170.205 139.272L170.949 141.435L161.042 144.464ZM180.188 135.649L179.929 134.896C179.738 134.342 179.68 133.797 179.755 133.26C179.835 132.722 180.054 132.241 180.413 131.818C180.772 131.394 181.276 131.083 181.925 130.885C182.593 130.681 183.201 130.651 183.751 130.797C184.298 130.938 184.768 131.206 185.158 131.601C185.554 131.994 185.847 132.469 186.04 133.028L186.299 133.781C186.49 134.335 186.547 134.88 186.472 135.417C186.397 135.954 186.18 136.434 185.822 136.857C185.468 137.279 184.962 137.591 184.303 137.792C183.644 137.993 183.038 138.022 182.484 137.878C181.93 137.734 181.455 137.465 181.06 137.072C180.669 136.677 180.379 136.203 180.188 135.649ZM181.77 134.333L182.03 135.086C182.156 135.454 182.362 135.764 182.646 136.016C182.931 136.268 183.299 136.325 183.75 136.187C184.207 136.048 184.468 135.801 184.533 135.447C184.601 135.087 184.571 134.721 184.443 134.349L184.184 133.595C184.056 133.223 183.856 132.909 183.586 132.652C183.314 132.391 182.943 132.332 182.472 132.476C182.03 132.611 181.771 132.862 181.695 133.23C181.617 133.593 181.642 133.961 181.77 134.333ZM170.027 129.718L169.767 128.965C169.575 128.407 169.519 127.858 169.599 127.32C169.679 126.781 169.899 126.303 170.259 125.884C170.617 125.461 171.121 125.15 171.771 124.952C172.434 124.749 173.04 124.72 173.589 124.866C174.142 125.006 174.613 125.273 175.004 125.667C175.395 126.062 175.686 126.538 175.878 127.097L176.138 127.85C176.33 128.408 176.389 128.956 176.313 129.493C176.242 130.024 176.025 130.499 175.665 130.917C175.305 131.336 174.798 131.645 174.144 131.845C173.481 132.048 172.873 132.079 172.32 131.94C171.773 131.799 171.301 131.532 170.906 131.138C170.51 130.745 170.217 130.272 170.027 129.718ZM171.623 128.397L171.883 129.151C172.011 129.523 172.215 129.836 172.495 130.09C172.777 130.337 173.145 130.392 173.596 130.254C174.048 130.116 174.306 129.87 174.372 129.516C174.44 129.156 174.41 128.79 174.282 128.417L174.022 127.664C173.894 127.292 173.695 126.978 173.425 126.721C173.153 126.46 172.784 126.4 172.318 126.543C171.871 126.679 171.612 126.931 171.541 127.297C171.469 127.663 171.497 128.03 171.623 128.397ZM174.569 140.328L179.585 123.002L181.349 122.463L176.333 139.789L174.569 140.328Z" fill="#050917"/>
</g>
<defs>
<filter id="filter0_d_2010_148" x="0.214844" y="0.9375" width="357.211" height="280.84" filterUnits="userSpaceOnUse" color-interpolation-filters="sRGB">
<feFlood flood-opacity="0" result="BackgroundImageFix"/>
<feColorMatrix in="SourceAlpha" type="matrix" values="0 0 0 0 0 0 0 0 0 0 0 0 0 0 0 0 0 0 127 0" result="hardAlpha"/>
<feOffset dx="15" dy="15"/>
<feGaussianBlur stdDeviation="40"/>
<feComposite in2="hardAlpha" operator="out"/>
<feColorMatrix type="matrix" values="0 0 0 0 0.0196078 0 0 0 0 0.0352941 0 0 0 0 0.0901961 0 0 0 0.2 0"/>
<feBlend mode="normal" in2="BackgroundImageFix" result="effect1_dropShadow_2010_148"/>
<feBlend mode="normal" in="SourceGraphic" in2="effect1_dropShadow_2010_148" result="shape"/>
</filter>
</defs>
</svg>
