<svg width="224" height="240" viewBox="0 0 224 240" fill="none" xmlns="http://www.w3.org/2000/svg">
<rect y="190" width="50" height="50" rx="6" fill="#1179FC"/>
<path d="M30.1813 203.701L18.8938 207.451C11.3062 209.988 11.3062 214.126 18.8938 216.651L22.2438 217.763L23.3563 221.113C25.8813 228.701 30.0313 228.701 32.5563 221.113L36.3188 209.838C37.9938 204.776 35.2438 202.013 30.1813 203.701ZM30.5813 210.426L25.8313 215.201C25.6438 215.388 25.4063 215.476 25.1688 215.476C24.9313 215.476 24.6938 215.388 24.5063 215.201C24.1438 214.838 24.1438 214.238 24.5063 213.876L29.2563 209.101C29.6188 208.738 30.2188 208.738 30.5813 209.101C30.9438 209.463 30.9438 210.063 30.5813 210.426Z" fill="white"/>
<rect x="174" width="50" height="50" rx="6" fill="#F9C304"/>
<path d="M206.188 13.75C208.431 13.75 210.25 15.5688 210.25 17.8125V32.1875C210.25 34.4311 208.431 36.25 206.188 36.25H191.812C189.569 36.25 187.75 34.4311 187.75 32.1875V17.8125C187.75 15.5688 189.569 13.75 191.812 13.75H206.188ZM206.188 15.625H191.812C190.604 15.625 189.625 16.6044 189.625 17.8125V26.25H195.25C195.725 26.25 196.117 26.6027 196.179 27.0603L196.188 27.1875C196.188 28.7408 197.447 30 199 30C200.489 30 201.707 28.8435 201.806 27.38L201.812 27.1875C201.812 26.6698 202.232 26.25 202.75 26.25H208.375V17.8125C208.375 16.6648 207.491 15.7235 206.367 15.6322L206.188 15.625ZM192.438 21.875H205.562C206.08 21.875 206.5 22.2947 206.5 22.8125C206.5 23.2871 206.147 23.6794 205.69 23.7415L205.562 23.75H192.438C191.92 23.75 191.5 23.3302 191.5 22.8125C191.5 22.3379 191.853 21.9456 192.31 21.8836L192.438 21.875H205.562H192.438ZM192.438 18.125H205.562C206.08 18.125 206.5 18.5447 206.5 19.0625C206.5 19.5371 206.147 19.9294 205.69 19.9914L205.562 20H192.438C191.92 20 191.5 19.5803 191.5 19.0625C191.5 18.5879 191.853 18.1956 192.31 18.1336L192.438 18.125H205.562H192.438Z" fill="#0F0F0F"/>
<rect width="50" height="50" rx="6" fill="#EB5757"/>
<path d="M34.6875 18.1245H27.2762L22.0592 22.4726L21.8637 22.6216C21.4612 22.9013 20.9924 23.071 20.5042 23.1138L20.2587 23.1245L12.5 23.1233V32.187L12.5065 32.3795C12.6054 33.843 13.8239 34.9995 15.3125 34.9995H23.75V29.9995C23.75 27.9284 25.4289 26.2495 27.5 26.2495H36.25C36.6882 26.2495 37.109 26.3248 37.5 26.4629V20.937L37.4935 20.7444L37.4731 20.5469C37.2832 19.1782 36.1084 18.1245 34.6875 18.1245ZM21.8637 15.5024C21.3941 15.1761 20.8344 14.9995 20.2587 14.9995H15.3125L15.1199 15.006C13.6565 15.105 12.5 16.3234 12.5 17.812V21.2483L20.2587 21.2495L20.3891 21.2404C20.5181 21.2223 20.642 21.1774 20.7528 21.1087L20.8588 21.0322L24.6875 17.8408L22.0592 15.6514L21.8637 15.5024ZM31.8872 33.6581L25.0236 29.6543C25.1917 28.437 26.2364 27.4995 27.5 27.4995H36.25C37.6185 27.4995 38.7301 28.599 38.7497 29.9629L31.8872 33.6581ZM32.1712 34.9248L38.75 31.3824V36.2495C38.75 37.6303 37.6307 38.7495 36.25 38.7495H27.5C26.1192 38.7495 25 37.6303 25 36.2495V31.0876L31.5601 34.9144C31.7481 35.024 31.9796 35.028 32.1712 34.9248Z" fill="white"/>
<rect x="174" y="190" width="50" height="50" rx="6" fill="#02BD6E"/>
<g clip-path="url(#clip0_2263_2263)">
<path d="M209.766 216.407C209.766 219.267 208.63 222.009 206.608 224.031C204.586 226.053 201.844 227.189 198.984 227.189C196.125 227.189 193.383 226.053 191.361 224.031C189.339 222.009 188.203 219.267 188.203 216.407C188.203 213.7 189.363 210.583 191.648 207.138C191.784 206.933 191.994 206.79 192.234 206.739C192.482 206.691 192.739 206.741 192.949 206.88L196.723 209.399L200.344 201.806C200.407 201.672 200.502 201.555 200.621 201.465C200.739 201.375 200.877 201.315 201.023 201.29C201.173 201.264 201.326 201.273 201.471 201.318C201.616 201.363 201.747 201.442 201.855 201.548C203.578 203.271 205.547 205.368 207.082 207.806C208.887 210.677 209.766 213.489 209.766 216.407Z" fill="white"/>
</g>
<path fill-rule="evenodd" clip-rule="evenodd" d="M111.834 150C128.311 150 141.669 136.569 141.669 120C141.669 103.431 128.311 90 111.834 90C95.3572 90 82 103.431 82 120C82 136.569 95.3572 150 111.834 150ZM121.142 103.975C121.595 102.357 120.25 102.422 118.607 102.422H104.305C102.758 103.53 97.3935 120 99.0624 120H104.305V119.959H107.359L106.197 122.913L102.527 136.025C102.074 137.643 103.636 138.6 105.062 137.578L124.972 123.316C126.518 122.208 126.275 120 124.606 120H116.656L121.142 103.975Z" fill="#1179FC"/>
<path d="M111 90V77.9091C111 73.541 107.459 70 103.091 70V70H32C27.5817 70 24 66.4183 24 62V50" stroke="#DFE1E3" stroke-width="1.5"/>
<path d="M111 90V77.9091C111 73.541 114.541 70 118.909 70V70H190C194.418 70 198 66.4183 198 62V50" stroke="#DFE1E3" stroke-width="1.5"/>
<path d="M111 150V162.091C111 166.459 107.459 170 103.091 170V170H32C27.5817 170 24 173.582 24 178V190" stroke="#DFE1E3" stroke-width="1.5"/>
<path d="M111 150V162.091C111 166.459 114.541 170 118.909 170V170H190C194.418 170 198 173.582 198 178V190" stroke="#DFE1E3" stroke-width="1.5"/>
<defs>
<clipPath id="clip0_2263_2263">
<rect width="30" height="30" fill="white" transform="translate(184 200)"/>
</clipPath>
</defs>
</svg>
