<svg width="60" height="60" viewBox="0 0 60 60" fill="none" xmlns="http://www.w3.org/2000/svg">
<rect width="60" height="60" rx="8" fill="#1179FC"/>
<g clip-path="url(#clip0_636_1075)">
<path d="M39.3679 20.5308C39.6191 20.782 39.8173 21.0811 39.9508 21.4103C40.0843 21.7395 40.1503 22.0921 40.145 22.4473C40.1398 22.8025 40.0633 23.153 39.9201 23.478C39.7769 23.8031 39.5699 24.0962 39.3114 24.3398L34.7133 28.6758L38.1913 38.6667C38.4713 39.469 38.2667 40.3638 37.6652 40.9653C37.5417 41.0887 37.3934 41.1845 37.2302 41.2464C37.0669 41.3083 36.8924 41.3349 36.7181 41.3244C36.5438 41.3138 36.3738 41.2665 36.2191 41.1854C36.0645 41.1043 35.9288 40.9914 35.8211 40.854L29.8521 33.2597L26.1988 36.7057L27.0011 38.432C27.1496 38.7516 27.1963 39.1091 27.1349 39.4561C27.0735 39.8031 26.907 40.1229 26.6579 40.3723C26.5463 40.4839 26.4137 40.5724 26.2679 40.6328C26.122 40.6932 25.9656 40.7242 25.8078 40.7241C25.6499 40.724 25.4936 40.6928 25.3478 40.6323C25.202 40.5717 25.0695 40.4831 24.958 40.3713L23.5664 38.9797L22.6434 39.5841C22.3202 39.7958 21.934 39.8898 21.5496 39.8502C21.1653 39.8106 20.8063 39.6398 20.5331 39.3666C20.2599 39.0934 20.0891 38.7344 20.0495 38.3501C20.0099 37.9657 20.1039 37.5795 20.3156 37.2563L20.9209 36.3342L19.5274 34.9407C19.0938 34.507 19.0608 33.8273 19.4275 33.3549L19.5274 33.2418C19.7766 32.9931 20.0961 32.8268 20.4427 32.7655C20.7893 32.7041 21.1465 32.7506 21.4659 32.8986L23.1931 33.6981L26.6259 30.0579L19.1466 24.1795C19.1272 24.1644 19.1084 24.1486 19.09 24.1324L19.0362 24.0824C18.5545 23.6006 18.5545 22.8181 19.0362 22.3363C19.5878 21.7848 20.3845 21.567 21.1321 21.7489L21.3348 21.8102L31.1759 25.2345L35.5599 20.5865C36.043 20.0744 36.7098 19.7752 37.4135 19.7547C38.1171 19.7342 38.8002 19.9941 39.3123 20.4771L39.3679 20.5308Z" fill="white"/>
</g>
<defs>
<clipPath id="clip0_636_1075">
<rect width="32" height="32" fill="white" transform="translate(7.375 30) rotate(-45)"/>
</clipPath>
</defs>
</svg>
