<svg width="56" height="56" viewBox="0 0 56 56" fill="none" xmlns="http://www.w3.org/2000/svg">
<path d="M18.8741 27.1366H7.93072C8.11738 16.2399 10.264 14.4432 16.9607 10.4765C17.7307 10.0098 17.9873 9.02983 17.5207 8.2365C17.054 7.4665 16.074 7.20986 15.2806 7.67652C7.39396 12.3432 4.64062 15.1898 4.64062 28.7699V41.3466C4.64062 45.3366 7.88403 48.5566 11.8507 48.5566H18.8507C22.9574 48.5566 26.0606 45.4533 26.0606 41.3466V34.3466C26.0839 30.2399 22.9807 27.1366 18.8741 27.1366Z" fill="#1179FC"/>
<path opacity="0.4" d="M44.1201 27.1366H33.1767C33.3634 16.2399 35.5103 14.4432 42.2069 10.4765C42.9769 10.0098 43.2336 9.02983 42.767 8.2365C42.3003 7.4665 41.3201 7.20986 40.5267 7.67652C32.6401 12.3432 29.8867 15.1898 29.8867 28.7699V41.3466C29.8867 45.3366 33.1303 48.5566 37.097 48.5566H44.097C48.2036 48.5566 51.3067 45.4533 51.3067 41.3466V34.3466C51.33 30.2399 48.2267 27.1366 44.1201 27.1366Z" fill="#1179FC"/>
</svg>
