<svg width="60" height="60" viewBox="0 0 60 60" fill="none" xmlns="http://www.w3.org/2000/svg">
<rect width="60" height="60" rx="8" fill="#1179FC"/>
<path d="M31.5829 23.1463C32.2862 22.443 33.2402 22.0479 34.2349 22.0479C35.2296 22.0479 36.1835 22.443 36.8869 23.1463C37.5902 23.8497 37.9854 24.8037 37.9854 25.7983C37.9854 26.793 37.5902 27.747 36.8869 28.4503C36.1835 29.1537 35.2296 29.5488 34.2349 29.5488C33.2402 29.5488 32.2862 29.1537 31.5829 28.4503C30.8795 27.747 30.4844 26.793 30.4844 25.7983C30.4844 24.8037 30.8795 23.8497 31.5829 23.1463ZM35.2954 24.7363C35.156 24.5971 34.9906 24.4866 34.8085 24.4113C34.6265 24.336 34.4314 24.2972 34.2343 24.2973C34.0373 24.2974 33.8422 24.3362 33.6602 24.4117C33.4782 24.4872 33.3129 24.5977 33.1736 24.7371C33.0344 24.8765 32.9239 25.0419 32.8486 25.2239C32.7732 25.406 32.7345 25.6011 32.7346 25.7981C32.7346 25.9951 32.7735 26.1902 32.849 26.3722C32.9244 26.5542 33.035 26.7196 33.1744 26.8588C33.4573 27.1321 33.8362 27.2833 34.2295 27.2799C34.6228 27.2764 34.999 27.1187 35.2771 26.8406C35.5552 26.5625 35.713 26.1862 35.7164 25.7929C35.7198 25.3997 35.5686 25.0207 35.2954 24.7378V24.7363Z" fill="white"/>
<path d="M41.5478 15.768C42.1866 15.9665 42.7675 16.3174 43.2405 16.7903C43.7134 17.2633 44.0643 17.8442 44.2628 18.483L44.5733 19.4805C45.1208 21.2425 45.1765 23.1207 44.7342 24.912C44.2919 26.7034 43.3685 28.3398 42.0638 29.6445L40.5668 31.1415C41.3226 32.1518 41.6889 33.4007 41.5985 34.6592C41.5082 35.9177 40.9672 37.1015 40.0748 37.9935L38.2118 39.8565C38.0009 40.0672 37.7149 40.1855 37.4168 40.1855C37.1187 40.1855 36.8328 40.0672 36.6218 39.8565L34.2368 37.4715L33.9713 37.737C33.7276 37.9808 33.4382 38.1742 33.1197 38.3061C32.8012 38.438 32.4598 38.5059 32.1151 38.5059C31.7703 38.5059 31.429 38.438 31.1105 38.3061C30.792 38.1742 30.5026 37.9808 30.2588 37.737L29.5283 37.0065L28.3118 39.0915C28.2251 39.2402 28.1055 39.367 27.9621 39.4622C27.8187 39.5575 27.6554 39.6185 27.4847 39.6407C27.3141 39.6628 27.1406 39.6455 26.9776 39.5901C26.8147 39.5347 26.6666 39.4426 26.5448 39.321L20.7098 33.4875C20.5889 33.3664 20.4971 33.2194 20.4416 33.0576C20.386 32.8957 20.3681 32.7233 20.3893 32.5535C20.4104 32.3837 20.4699 32.221 20.5634 32.0776C20.6569 31.9343 20.7819 31.8142 20.9288 31.7265L23.0048 30.483L22.2998 29.778C22.056 29.5342 21.8627 29.2448 21.7307 28.9264C21.5988 28.6079 21.5309 28.2665 21.5309 27.9217C21.5309 27.577 21.5988 27.2356 21.7307 26.9171C21.8627 26.5986 22.056 26.3093 22.2998 26.0655L22.5698 25.7955L20.1818 23.4105C20.0773 23.306 19.9943 23.182 19.9378 23.0454C19.8812 22.9089 19.8521 22.7625 19.8521 22.6147C19.8521 22.4669 19.8812 22.3206 19.9378 22.1841C19.9943 22.0475 20.0773 21.9235 20.1818 21.819L22.0463 19.9545C22.9387 19.0622 24.1229 18.5215 25.3816 18.4314C26.6404 18.3413 27.8894 18.7079 28.8998 19.464L30.3938 17.9715C31.6979 16.6673 33.3335 15.7442 35.124 15.3016C36.9145 14.8591 38.7918 14.914 40.5533 15.4605L41.5478 15.768ZM42.1148 19.152C42.0246 18.8615 41.8651 18.5974 41.65 18.3823C41.4349 18.1672 41.1708 18.0077 40.8803 17.9175L39.8873 17.61C38.5171 17.1845 37.0567 17.1413 35.6638 17.4853C34.2709 17.8292 32.9984 18.5471 31.9838 19.5615L23.8898 27.657C23.8197 27.7273 23.7804 27.8225 23.7804 27.9217C23.7804 28.021 23.8197 28.1162 23.8898 28.1865L31.8503 36.147C31.9206 36.2171 32.0158 36.2564 32.1151 36.2564C32.2143 36.2564 32.3095 36.2171 32.3798 36.147L40.4738 28.0545C41.4882 27.0396 42.206 25.7668 42.5497 24.3736C42.8934 22.9804 42.8498 21.5198 42.4238 20.1495L42.1148 19.152ZM22.0358 39.5925C22.2408 39.3804 22.3544 39.0963 22.3519 38.8013C22.3495 38.5063 22.2313 38.2241 22.0229 38.0154C21.8144 37.8068 21.5323 37.6883 21.2373 37.6856C20.9423 37.6829 20.6581 37.7962 20.4458 38.001L16.7318 41.7135C16.527 41.9258 16.4137 42.21 16.4164 42.505C16.4191 42.7999 16.5376 43.0821 16.7463 43.2905C16.9549 43.499 17.2372 43.6172 17.5321 43.6196C17.8271 43.6221 18.1112 43.5085 18.3233 43.3035L22.0358 39.5925ZM19.1183 35.085C19.329 35.2959 19.4473 35.5819 19.4473 35.88C19.4473 36.1781 19.329 36.4641 19.1183 36.675L17.5283 38.265C17.4246 38.3725 17.3005 38.4583 17.1633 38.5173C17.026 38.5763 16.8784 38.6074 16.7291 38.6088C16.5797 38.6101 16.4315 38.5817 16.2932 38.5252C16.155 38.4687 16.0293 38.3853 15.9236 38.2797C15.818 38.1741 15.7344 38.0485 15.6777 37.9103C15.6211 37.7721 15.5926 37.624 15.5938 37.4746C15.595 37.3252 15.626 37.1776 15.6849 37.0403C15.7438 36.903 15.8294 36.7788 15.9368 36.675L17.5268 35.085C17.6313 34.9805 17.7553 34.8975 17.8919 34.8409C18.0284 34.7844 18.1748 34.7552 18.3226 34.7552C18.4704 34.7552 18.6167 34.7844 18.7532 34.8409C18.8898 34.8975 19.0138 34.9805 19.1183 35.085ZM24.9488 42.5115C25.0593 42.4085 25.148 42.2843 25.2095 42.1463C25.271 42.0083 25.304 41.8593 25.3067 41.7083C25.3094 41.5572 25.2816 41.4072 25.225 41.2671C25.1684 41.127 25.0842 40.9998 24.9774 40.8929C24.8705 40.7861 24.7433 40.7019 24.6032 40.6453C24.4631 40.5887 24.3131 40.5609 24.162 40.5636C24.011 40.5663 23.862 40.5993 23.724 40.6608C23.586 40.7223 23.4618 40.811 23.3588 40.9215L21.7703 42.5085C21.5716 42.7218 21.4634 43.0038 21.4685 43.2953C21.4737 43.5867 21.5918 43.8648 21.7979 44.0709C22.004 44.277 22.2821 44.3951 22.5735 44.4003C22.865 44.4054 23.1471 44.2972 23.3603 44.0985L24.9503 42.5115H24.9488Z" fill="white"/>
</svg>
