<svg width="60" height="60" viewBox="0 0 60 60" fill="none" xmlns="http://www.w3.org/2000/svg">
<rect width="60" height="60" rx="8" fill="#1179FC"/>
<path d="M45.1023 22.8225L41.1438 26.1975L42.3292 31.2221C42.4128 31.5742 42.3906 31.9432 42.2655 32.2829C42.1405 32.6226 41.9181 32.9178 41.6261 33.1317C41.3308 33.3486 40.9782 33.4736 40.6123 33.4911C40.2463 33.5086 39.8834 33.4178 39.5688 33.2302L35.0688 30.5583L30.5688 33.2302C30.2541 33.4178 29.8912 33.5086 29.5252 33.4911C29.1593 33.4736 28.8067 33.3486 28.5114 33.1317C28.2196 32.9177 27.9973 32.6224 27.8722 32.2828C27.7472 31.9432 27.7249 31.5742 27.8083 31.2221L28.9937 26.1975L25.0338 22.8225C24.7566 22.586 24.5557 22.2727 24.4562 21.9223C24.3568 21.5718 24.3632 21.1997 24.4748 20.8528C24.5863 20.506 24.798 20.1999 25.0831 19.9731C25.3683 19.7463 25.7141 19.6089 26.0772 19.5783L31.3127 19.1353L33.3545 14.3752C33.4986 14.0415 33.7373 13.7572 34.041 13.5576C34.3448 13.3579 34.7003 13.2515 35.0638 13.2515C35.4273 13.2515 35.7829 13.3579 36.0866 13.5576C36.3904 13.7572 36.629 14.0415 36.7731 14.3752L38.815 19.1381L44.0491 19.5783C44.413 19.6069 44.7602 19.7427 45.0469 19.9687C45.3335 20.1946 45.5467 20.5005 45.6595 20.8477C45.7722 21.1949 45.7795 21.5677 45.6803 21.9189C45.5811 22.2702 45.38 22.5842 45.1023 22.8211V22.8225ZM24.0466 27.0792C23.9421 26.9746 23.818 26.8917 23.6814 26.835C23.5449 26.7784 23.3985 26.7493 23.2506 26.7493C23.1028 26.7493 22.9564 26.7784 22.8198 26.835C22.6832 26.8917 22.5592 26.9746 22.4547 27.0792L14.5797 34.9542C14.3686 35.1653 14.25 35.4516 14.25 35.7502C14.25 36.0487 14.3686 36.335 14.5797 36.5461C14.7908 36.7572 15.0771 36.8758 15.3756 36.8758C15.6742 36.8758 15.9605 36.7572 16.1716 36.5461L24.0466 28.6711C24.1512 28.5666 24.2341 28.4426 24.2908 28.306C24.3474 28.1694 24.3765 28.023 24.3765 27.8752C24.3765 27.7273 24.3474 27.5809 24.2908 27.4444C24.2341 27.3078 24.1512 27.1837 24.0466 27.0792ZM26.2966 34.9542C26.1921 34.8496 26.068 34.7667 25.9314 34.71C25.7949 34.6534 25.6485 34.6243 25.5006 34.6243C25.3528 34.6243 25.2064 34.6534 25.0698 34.71C24.9332 34.7667 24.8092 34.8496 24.7047 34.9542L16.8297 42.8292C16.7252 42.9338 16.6423 43.0578 16.5857 43.1944C16.5291 43.331 16.5 43.4774 16.5 43.6252C16.5 43.773 16.5291 43.9194 16.5857 44.0559C16.6423 44.1925 16.7252 44.3166 16.8297 44.4211C17.0408 44.6322 17.3271 44.7508 17.6256 44.7508C17.7734 44.7508 17.9198 44.7217 18.0564 44.6651C18.193 44.6085 18.317 44.5256 18.4216 44.4211L26.2966 36.5461C26.4012 36.4416 26.4841 36.3176 26.5408 36.181C26.5974 36.0444 26.6265 35.898 26.6265 35.7502C26.6265 35.6023 26.5974 35.4559 26.5408 35.3194C26.4841 35.1828 26.4012 35.0587 26.2966 34.9542ZM34.8311 34.9542L26.9561 42.8292C26.745 43.0403 26.6264 43.3266 26.6264 43.6252C26.6264 43.9237 26.745 44.21 26.9561 44.4211C27.1672 44.6322 27.4535 44.7508 27.752 44.7508C28.0506 44.7508 28.3369 44.6322 28.548 44.4211L36.423 36.5461C36.6341 36.3352 36.7527 36.0491 36.7529 35.7507C36.753 35.4523 36.6346 35.166 36.4237 34.9549C36.2128 34.7438 35.9266 34.6252 35.6282 34.625C35.3298 34.6249 35.0436 34.7433 34.8325 34.9542H34.8311Z" fill="white"/>
</svg>
