<svg width="60" height="60" viewBox="0 0 60 60" fill="none" xmlns="http://www.w3.org/2000/svg">
<g clip-path="url(#clip0_1352_14257)">
<path d="M52 0H8C3.58172 0 0 3.58172 0 8V52C0 56.4183 3.58172 60 8 60H52C56.4183 60 60 56.4183 60 52V8C60 3.58172 56.4183 0 52 0Z" fill="#1179FC"/>
<path d="M24.6627 19.3023C24.8697 18.7213 25.4197 18.3333 26.0365 18.3333H33.5657C34.5611 18.3333 35.2639 19.3085 34.9492 20.2528L33.2557 25.3333H37.8742C39.1625 25.3333 39.818 26.8813 38.9217 27.8064L26.0172 41.1253C24.7878 42.3942 22.6666 41.2492 23.0526 39.5252L24.5334 32.9124L22.7035 32.9054C21.2956 32.9001 20.3156 31.5049 20.7881 30.1787L24.6627 19.3023Z" fill="white"/>
</g>
<defs>
<clipPath id="clip0_1352_14257">
<rect width="60" height="60" fill="white"/>
</clipPath>
</defs>
</svg>
