<svg width="42" height="42" viewBox="0 0 42 42" fill="none" xmlns="http://www.w3.org/2000/svg">
<path d="M31.0625 5.25C34.2036 5.25 36.75 7.79637 36.75 10.9375V31.0625C36.75 34.2036 34.2036 36.75 31.0625 36.75H10.9375C7.79637 36.75 5.25 34.2036 5.25 31.0625V10.9375C5.25 7.79637 7.79637 5.25 10.9375 5.25H31.0625ZM31.0625 7.875H10.9375C9.24612 7.875 7.875 9.24612 7.875 10.9375V22.75H15.75C16.4145 22.75 16.9636 23.2439 17.0505 23.8843L17.0625 24.0625C17.0625 26.237 18.8254 28 21 28C23.0841 28 24.7898 26.3809 24.9284 24.332L24.9375 24.0625C24.9375 23.3377 25.5252 22.75 26.25 22.75H34.125V10.9375C34.125 9.3307 32.8876 8.01292 31.3136 7.88515L31.0625 7.875ZM11.8125 16.625H30.1875C30.9123 16.625 31.5 17.2126 31.5 17.9375C31.5 18.602 31.0062 19.1511 30.3657 19.2381L30.1875 19.25H11.8125C11.0876 19.25 10.5 18.6623 10.5 17.9375C10.5 17.273 10.9938 16.7239 11.6344 16.637L11.8125 16.625H30.1875H11.8125ZM11.8125 11.375H30.1875C30.9123 11.375 31.5 11.9626 31.5 12.6875C31.5 13.352 31.0062 13.9011 30.3657 13.988L30.1875 14H11.8125C11.0876 14 10.5 13.4124 10.5 12.6875C10.5 12.023 10.9938 11.4739 11.6344 11.387L11.8125 11.375H30.1875H11.8125Z" fill="#050917"/>
</svg>
